<mxfile host="Electron" agent="Mozilla/5.0 (Windows NT 10.0; Win64; x64) AppleWebKit/537.36 (KHTML, like Gecko) draw.io/28.0.6 Chrome/138.0.7204.100 Electron/37.2.3 Safari/537.36" version="28.0.6">
  <diagram name="Page-1" id="lBCF7To9PnX0q2EUvDfo">
    <mxGraphModel dx="1426" dy="841" grid="1" gridSize="10" guides="1" tooltips="1" connect="1" arrows="1" fold="1" page="1" pageScale="1" pageWidth="827" pageHeight="1169" math="0" shadow="0">
      <root>
        <mxCell id="0" />
        <mxCell id="1" parent="0" />
        <mxCell id="yfFs6hcSfNhzoy_Hy0Ne-2" value="Player" style="swimlane;fontStyle=0;childLayout=stackLayout;horizontal=1;startSize=30;horizontalStack=0;resizeParent=1;resizeParentMax=0;resizeLast=0;collapsible=1;marginBottom=0;whiteSpace=wrap;html=1;" parent="1" vertex="1">
          <mxGeometry x="170" y="250" width="140" height="330" as="geometry" />
        </mxCell>
        <mxCell id="yfFs6hcSfNhzoy_Hy0Ne-3" value="hp&amp;nbsp; &amp;nbsp; &amp;nbsp; &amp;nbsp; &amp;nbsp; &amp;nbsp; &amp;nbsp; &amp;nbsp; &amp;nbsp; &amp;nbsp; number" style="text;strokeColor=none;fillColor=none;align=left;verticalAlign=middle;spacingLeft=4;spacingRight=4;overflow=hidden;points=[[0,0.5],[1,0.5]];portConstraint=eastwest;rotatable=0;whiteSpace=wrap;html=1;" parent="yfFs6hcSfNhzoy_Hy0Ne-2" vertex="1">
          <mxGeometry y="30" width="140" height="30" as="geometry" />
        </mxCell>
        <mxCell id="yfFs6hcSfNhzoy_Hy0Ne-14" value="score&amp;nbsp; &amp;nbsp; &amp;nbsp; &amp;nbsp; &amp;nbsp; &amp;nbsp; &amp;nbsp; &amp;nbsp;number" style="text;strokeColor=none;fillColor=none;align=left;verticalAlign=middle;spacingLeft=4;spacingRight=4;overflow=hidden;points=[[0,0.5],[1,0.5]];portConstraint=eastwest;rotatable=0;whiteSpace=wrap;html=1;" parent="yfFs6hcSfNhzoy_Hy0Ne-2" vertex="1">
          <mxGeometry y="60" width="140" height="30" as="geometry" />
        </mxCell>
        <mxCell id="yfFs6hcSfNhzoy_Hy0Ne-4" value="weapon&amp;nbsp; &amp;nbsp; &amp;nbsp; &amp;nbsp; &amp;nbsp; &amp;nbsp;weapon" style="text;strokeColor=none;fillColor=none;align=left;verticalAlign=middle;spacingLeft=4;spacingRight=4;overflow=hidden;points=[[0,0.5],[1,0.5]];portConstraint=eastwest;rotatable=0;whiteSpace=wrap;html=1;" parent="yfFs6hcSfNhzoy_Hy0Ne-2" vertex="1">
          <mxGeometry y="90" width="140" height="30" as="geometry" />
        </mxCell>
        <mxCell id="yfFs6hcSfNhzoy_Hy0Ne-19" value="moveLeft()&amp;nbsp; &amp;nbsp; &amp;nbsp; &amp;nbsp; &amp;nbsp; &amp;nbsp; &amp;nbsp;void" style="text;strokeColor=none;fillColor=none;align=left;verticalAlign=middle;spacingLeft=4;spacingRight=4;overflow=hidden;points=[[0,0.5],[1,0.5]];portConstraint=eastwest;rotatable=0;whiteSpace=wrap;html=1;" parent="yfFs6hcSfNhzoy_Hy0Ne-2" vertex="1">
          <mxGeometry y="120" width="140" height="30" as="geometry" />
        </mxCell>
        <mxCell id="yfFs6hcSfNhzoy_Hy0Ne-21" value="" style="endArrow=none;html=1;rounded=0;exitX=0.007;exitY=-0.067;exitDx=0;exitDy=0;exitPerimeter=0;entryX=0.993;entryY=-0.067;entryDx=0;entryDy=0;entryPerimeter=0;" parent="yfFs6hcSfNhzoy_Hy0Ne-2" source="yfFs6hcSfNhzoy_Hy0Ne-19" target="yfFs6hcSfNhzoy_Hy0Ne-19" edge="1">
          <mxGeometry width="50" height="50" relative="1" as="geometry">
            <mxPoint x="390" y="-7.990000000000009" as="sourcePoint" />
            <mxPoint x="440" y="-57.99000000000001" as="targetPoint" />
          </mxGeometry>
        </mxCell>
        <mxCell id="yfFs6hcSfNhzoy_Hy0Ne-24" value="moveRight()&amp;nbsp; &amp;nbsp; &amp;nbsp; &amp;nbsp; &amp;nbsp; void" style="text;strokeColor=none;fillColor=none;align=left;verticalAlign=middle;spacingLeft=4;spacingRight=4;overflow=hidden;points=[[0,0.5],[1,0.5]];portConstraint=eastwest;rotatable=0;whiteSpace=wrap;html=1;" parent="yfFs6hcSfNhzoy_Hy0Ne-2" vertex="1">
          <mxGeometry y="150" width="140" height="30" as="geometry" />
        </mxCell>
        <mxCell id="yfFs6hcSfNhzoy_Hy0Ne-25" value="moveUp()&amp;nbsp; &amp;nbsp; &amp;nbsp; &amp;nbsp; &amp;nbsp; &amp;nbsp; &amp;nbsp; void" style="text;strokeColor=none;fillColor=none;align=left;verticalAlign=middle;spacingLeft=4;spacingRight=4;overflow=hidden;points=[[0,0.5],[1,0.5]];portConstraint=eastwest;rotatable=0;whiteSpace=wrap;html=1;" parent="yfFs6hcSfNhzoy_Hy0Ne-2" vertex="1">
          <mxGeometry y="180" width="140" height="30" as="geometry" />
        </mxCell>
        <mxCell id="yfFs6hcSfNhzoy_Hy0Ne-26" value="moveDown()&amp;nbsp; &amp;nbsp; &amp;nbsp; &amp;nbsp; &amp;nbsp;void" style="text;strokeColor=none;fillColor=none;align=left;verticalAlign=middle;spacingLeft=4;spacingRight=4;overflow=hidden;points=[[0,0.5],[1,0.5]];portConstraint=eastwest;rotatable=0;whiteSpace=wrap;html=1;" parent="yfFs6hcSfNhzoy_Hy0Ne-2" vertex="1">
          <mxGeometry y="210" width="140" height="30" as="geometry" />
        </mxCell>
        <mxCell id="yfFs6hcSfNhzoy_Hy0Ne-27" value="takeWeapon()&amp;nbsp; &amp;nbsp; &amp;nbsp; &amp;nbsp;void" style="text;strokeColor=none;fillColor=none;align=left;verticalAlign=middle;spacingLeft=4;spacingRight=4;overflow=hidden;points=[[0,0.5],[1,0.5]];portConstraint=eastwest;rotatable=0;whiteSpace=wrap;html=1;" parent="yfFs6hcSfNhzoy_Hy0Ne-2" vertex="1">
          <mxGeometry y="240" width="140" height="30" as="geometry" />
        </mxCell>
        <mxCell id="yfFs6hcSfNhzoy_Hy0Ne-28" value="throwWeapon()&amp;nbsp; &amp;nbsp; &amp;nbsp;void" style="text;strokeColor=none;fillColor=none;align=left;verticalAlign=middle;spacingLeft=4;spacingRight=4;overflow=hidden;points=[[0,0.5],[1,0.5]];portConstraint=eastwest;rotatable=0;whiteSpace=wrap;html=1;" parent="yfFs6hcSfNhzoy_Hy0Ne-2" vertex="1">
          <mxGeometry y="270" width="140" height="30" as="geometry" />
        </mxCell>
        <mxCell id="yfFs6hcSfNhzoy_Hy0Ne-33" value="takeDamage()&amp;nbsp; &amp;nbsp; &amp;nbsp; &amp;nbsp;void" style="text;strokeColor=none;fillColor=none;align=left;verticalAlign=middle;spacingLeft=4;spacingRight=4;overflow=hidden;points=[[0,0.5],[1,0.5]];portConstraint=eastwest;rotatable=0;whiteSpace=wrap;html=1;" parent="yfFs6hcSfNhzoy_Hy0Ne-2" vertex="1">
          <mxGeometry y="300" width="140" height="30" as="geometry" />
        </mxCell>
        <mxCell id="yfFs6hcSfNhzoy_Hy0Ne-6" value="Weapon" style="swimlane;fontStyle=0;childLayout=stackLayout;horizontal=1;startSize=30;horizontalStack=0;resizeParent=1;resizeParentMax=0;resizeLast=0;collapsible=1;marginBottom=0;whiteSpace=wrap;html=1;" parent="1" vertex="1">
          <mxGeometry x="540" y="295" width="140" height="120" as="geometry" />
        </mxCell>
        <mxCell id="yfFs6hcSfNhzoy_Hy0Ne-7" value="dammage&amp;nbsp; &amp;nbsp; &amp;nbsp; &amp;nbsp; number" style="text;strokeColor=none;fillColor=none;align=left;verticalAlign=middle;spacingLeft=4;spacingRight=4;overflow=hidden;points=[[0,0.5],[1,0.5]];portConstraint=eastwest;rotatable=0;whiteSpace=wrap;html=1;" parent="yfFs6hcSfNhzoy_Hy0Ne-6" vertex="1">
          <mxGeometry y="30" width="140" height="30" as="geometry" />
        </mxCell>
        <mxCell id="yfFs6hcSfNhzoy_Hy0Ne-9" value="name&amp;nbsp; &amp;nbsp; &amp;nbsp; &amp;nbsp; &amp;nbsp; &amp;nbsp; &amp;nbsp; &amp;nbsp;number" style="text;strokeColor=none;fillColor=none;align=left;verticalAlign=middle;spacingLeft=4;spacingRight=4;overflow=hidden;points=[[0,0.5],[1,0.5]];portConstraint=eastwest;rotatable=0;whiteSpace=wrap;html=1;" parent="yfFs6hcSfNhzoy_Hy0Ne-6" vertex="1">
          <mxGeometry y="60" width="140" height="30" as="geometry" />
        </mxCell>
        <mxCell id="yfFs6hcSfNhzoy_Hy0Ne-30" value="" style="endArrow=none;html=1;rounded=0;exitX=0.007;exitY=-0.067;exitDx=0;exitDy=0;exitPerimeter=0;entryX=0.993;entryY=-0.067;entryDx=0;entryDy=0;entryPerimeter=0;" parent="yfFs6hcSfNhzoy_Hy0Ne-6" source="yfFs6hcSfNhzoy_Hy0Ne-31" target="yfFs6hcSfNhzoy_Hy0Ne-31" edge="1">
          <mxGeometry width="50" height="50" relative="1" as="geometry">
            <mxPoint x="400" y="-50.98000000000002" as="sourcePoint" />
            <mxPoint x="450" y="-100.98000000000002" as="targetPoint" />
          </mxGeometry>
        </mxCell>
        <mxCell id="yfFs6hcSfNhzoy_Hy0Ne-31" value="useWeapon()&amp;nbsp; &amp;nbsp; &amp;nbsp; &amp;nbsp;void" style="text;strokeColor=none;fillColor=none;align=left;verticalAlign=middle;spacingLeft=4;spacingRight=4;overflow=hidden;points=[[0,0.5],[1,0.5]];portConstraint=eastwest;rotatable=0;whiteSpace=wrap;html=1;" parent="yfFs6hcSfNhzoy_Hy0Ne-6" vertex="1">
          <mxGeometry y="90" width="140" height="30" as="geometry" />
        </mxCell>
        <mxCell id="yfFs6hcSfNhzoy_Hy0Ne-10" value="Event" style="swimlane;fontStyle=0;childLayout=stackLayout;horizontal=1;startSize=30;horizontalStack=0;resizeParent=1;resizeParentMax=0;resizeLast=0;collapsible=1;marginBottom=0;whiteSpace=wrap;html=1;" parent="1" vertex="1">
          <mxGeometry x="350" y="310" width="140" height="90" as="geometry" />
        </mxCell>
        <mxCell id="yfFs6hcSfNhzoy_Hy0Ne-15" value="map_id&amp;nbsp; &amp;nbsp; &amp;nbsp; &amp;nbsp; &amp;nbsp; &amp;nbsp; &amp;nbsp; &amp;nbsp; &amp;nbsp;map" style="text;strokeColor=none;fillColor=none;align=left;verticalAlign=middle;spacingLeft=4;spacingRight=4;overflow=hidden;points=[[0,0.5],[1,0.5]];portConstraint=eastwest;rotatable=0;whiteSpace=wrap;html=1;" parent="yfFs6hcSfNhzoy_Hy0Ne-10" vertex="1">
          <mxGeometry y="30" width="140" height="30" as="geometry" />
        </mxCell>
        <mxCell id="yfFs6hcSfNhzoy_Hy0Ne-23" value="" style="endArrow=none;html=1;rounded=0;exitX=0.007;exitY=-0.067;exitDx=0;exitDy=0;exitPerimeter=0;entryX=0.993;entryY=-0.067;entryDx=0;entryDy=0;entryPerimeter=0;" parent="yfFs6hcSfNhzoy_Hy0Ne-10" source="yfFs6hcSfNhzoy_Hy0Ne-22" target="yfFs6hcSfNhzoy_Hy0Ne-22" edge="1">
          <mxGeometry width="50" height="50" relative="1" as="geometry">
            <mxPoint x="390" y="-67.99000000000001" as="sourcePoint" />
            <mxPoint x="440" y="-117.99000000000001" as="targetPoint" />
          </mxGeometry>
        </mxCell>
        <mxCell id="yfFs6hcSfNhzoy_Hy0Ne-22" value="launchGame()&amp;nbsp; &amp;nbsp; &amp;nbsp; &amp;nbsp;void" style="text;strokeColor=none;fillColor=none;align=left;verticalAlign=middle;spacingLeft=4;spacingRight=4;overflow=hidden;points=[[0,0.5],[1,0.5]];portConstraint=eastwest;rotatable=0;whiteSpace=wrap;html=1;" parent="yfFs6hcSfNhzoy_Hy0Ne-10" vertex="1">
          <mxGeometry y="60" width="140" height="30" as="geometry" />
        </mxCell>
        <mxCell id="yfFs6hcSfNhzoy_Hy0Ne-34" value="Map" style="swimlane;fontStyle=0;childLayout=stackLayout;horizontal=1;startSize=30;horizontalStack=0;resizeParent=1;resizeParentMax=0;resizeLast=0;collapsible=1;marginBottom=0;whiteSpace=wrap;html=1;" parent="1" vertex="1">
          <mxGeometry x="350" y="490" width="140" height="120" as="geometry" />
        </mxCell>
        <mxCell id="yfFs6hcSfNhzoy_Hy0Ne-35" value="background&amp;nbsp; &amp;nbsp; &amp;nbsp; &amp;nbsp; &amp;nbsp; img" style="text;strokeColor=none;fillColor=none;align=left;verticalAlign=middle;spacingLeft=4;spacingRight=4;overflow=hidden;points=[[0,0.5],[1,0.5]];portConstraint=eastwest;rotatable=0;whiteSpace=wrap;html=1;" parent="yfFs6hcSfNhzoy_Hy0Ne-34" vertex="1">
          <mxGeometry y="30" width="140" height="30" as="geometry" />
        </mxCell>
        <mxCell id="yfFs6hcSfNhzoy_Hy0Ne-36" value="" style="endArrow=none;html=1;rounded=0;exitX=0.007;exitY=-0.067;exitDx=0;exitDy=0;exitPerimeter=0;entryX=0.993;entryY=-0.067;entryDx=0;entryDy=0;entryPerimeter=0;" parent="yfFs6hcSfNhzoy_Hy0Ne-34" source="yfFs6hcSfNhzoy_Hy0Ne-37" target="yfFs6hcSfNhzoy_Hy0Ne-37" edge="1">
          <mxGeometry width="50" height="50" relative="1" as="geometry">
            <mxPoint x="390" y="-67.99000000000001" as="sourcePoint" />
            <mxPoint x="440" y="-117.99000000000001" as="targetPoint" />
          </mxGeometry>
        </mxCell>
        <mxCell id="yfFs6hcSfNhzoy_Hy0Ne-38" value="stage&amp;nbsp; &amp;nbsp; &amp;nbsp; &amp;nbsp; &amp;nbsp; &amp;nbsp; &amp;nbsp; &amp;nbsp; &amp;nbsp; &amp;nbsp; img" style="text;strokeColor=none;fillColor=none;align=left;verticalAlign=middle;spacingLeft=4;spacingRight=4;overflow=hidden;points=[[0,0.5],[1,0.5]];portConstraint=eastwest;rotatable=0;whiteSpace=wrap;html=1;" parent="yfFs6hcSfNhzoy_Hy0Ne-34" vertex="1">
          <mxGeometry y="60" width="140" height="30" as="geometry" />
        </mxCell>
        <mxCell id="yfFs6hcSfNhzoy_Hy0Ne-37" value="lunchGame()&amp;nbsp; &amp;nbsp; &amp;nbsp; &amp;nbsp;void" style="text;strokeColor=none;fillColor=none;align=left;verticalAlign=middle;spacingLeft=4;spacingRight=4;overflow=hidden;points=[[0,0.5],[1,0.5]];portConstraint=eastwest;rotatable=0;whiteSpace=wrap;html=1;" parent="yfFs6hcSfNhzoy_Hy0Ne-34" vertex="1">
          <mxGeometry y="90" width="140" height="30" as="geometry" />
        </mxCell>
        <mxCell id="ZLlLZ1hatUf_E1ERyQva-1" value="Root" style="swimlane;fontStyle=0;childLayout=stackLayout;horizontal=1;startSize=30;horizontalStack=0;resizeParent=1;resizeParentMax=0;resizeLast=0;collapsible=1;marginBottom=0;whiteSpace=wrap;html=1;" parent="1" vertex="1">
          <mxGeometry x="580" y="495" width="140" height="90" as="geometry" />
        </mxCell>
        <mxCell id="ZLlLZ1hatUf_E1ERyQva-3" value="" style="endArrow=none;html=1;rounded=0;exitX=0.007;exitY=-0.067;exitDx=0;exitDy=0;exitPerimeter=0;entryX=0.993;entryY=-0.067;entryDx=0;entryDy=0;entryPerimeter=0;" parent="ZLlLZ1hatUf_E1ERyQva-1" source="ZLlLZ1hatUf_E1ERyQva-4" target="ZLlLZ1hatUf_E1ERyQva-4" edge="1">
          <mxGeometry width="50" height="50" relative="1" as="geometry">
            <mxPoint x="390" y="-67.99000000000001" as="sourcePoint" />
            <mxPoint x="440" y="-117.99000000000001" as="targetPoint" />
          </mxGeometry>
        </mxCell>
        <mxCell id="ZLlLZ1hatUf_E1ERyQva-4" value="launchRoot()&amp;nbsp; &amp;nbsp; &amp;nbsp; &amp;nbsp;void" style="text;strokeColor=none;fillColor=none;align=left;verticalAlign=middle;spacingLeft=4;spacingRight=4;overflow=hidden;points=[[0,0.5],[1,0.5]];portConstraint=eastwest;rotatable=0;whiteSpace=wrap;html=1;" parent="ZLlLZ1hatUf_E1ERyQva-1" vertex="1">
          <mxGeometry y="30" width="140" height="30" as="geometry" />
        </mxCell>
        <mxCell id="w1T372bW1cbClR5KsvZJ-1" value="closeRoot()&amp;nbsp; &amp;nbsp; &amp;nbsp; &amp;nbsp;void" style="text;strokeColor=none;fillColor=none;align=left;verticalAlign=middle;spacingLeft=4;spacingRight=4;overflow=hidden;points=[[0,0.5],[1,0.5]];portConstraint=eastwest;rotatable=0;whiteSpace=wrap;html=1;" vertex="1" parent="ZLlLZ1hatUf_E1ERyQva-1">
          <mxGeometry y="60" width="140" height="30" as="geometry" />
        </mxCell>
      </root>
    </mxGraphModel>
  </diagram>
</mxfile>
